<?xml version="1.0" encoding="UTF-8"?>
<svg xmlns="http://www.w3.org/2000/svg" xmlns:xlink="http://www.w3.org/1999/xlink" width="180px" height="60px" viewBox="0 0 180 60" version="1.1">
<defs>
<filter id="alpha" filterUnits="objectBoundingBox" x="0%" y="0%" width="100%" height="100%">
  <feColorMatrix type="matrix" in="SourceGraphic" values="0 0 0 0 1 0 0 0 0 1 0 0 0 0 1 0 0 0 1 0"/>
</filter>
<mask id="mask0">
  <g filter="url(#alpha)">
<rect x="0" y="0" width="180" height="60" style="fill:rgb(0%,0%,0%);fill-opacity:0.501961;stroke:none;"/>
  </g>
</mask>
<clipPath id="clip1">
  <rect x="0" y="0" width="180" height="60"/>
</clipPath>
<g id="surface5" clip-path="url(#clip1)">
<path style=" stroke:none;fill-rule:nonzero;fill:rgb(100%,100%,100%);fill-opacity:1;" d="M 171.589844 57.335938 L 167.667969 57.335938 L 153.707031 40.792969 L 164.882812 28.96875 L 169.074219 28.96875 L 157.632812 40.792969 Z M 171.589844 57.335938 "/>
</g>
<mask id="mask1">
  <g filter="url(#alpha)">
<rect x="0" y="0" width="180" height="60" style="fill:rgb(0%,0%,0%);fill-opacity:0.25098;stroke:none;"/>
  </g>
</mask>
<clipPath id="clip2">
  <rect x="0" y="0" width="180" height="60"/>
</clipPath>
<g id="surface8" clip-path="url(#clip2)">
<path style=" stroke:none;fill-rule:nonzero;fill:rgb(100%,100%,100%);fill-opacity:1;" d="M 177.789062 57.335938 L 173.898438 57.335938 L 159.9375 40.792969 L 171.109375 28.96875 L 175.304688 28.96875 L 163.863281 40.792969 Z M 177.789062 57.335938 "/>
</g>
</defs>
<g id="surface1">
<path style=" stroke:none;fill-rule:nonzero;fill:rgb(100%,100%,100%);fill-opacity:1;" d="M 138.644531 50.300781 C 136.875 52.234375 134.417969 53.40625 131.695312 53.40625 C 126.363281 53.40625 122.019531 48.8125 122.019531 43.167969 C 122.019531 37.527344 126.363281 32.933594 131.695312 32.933594 C 134.359375 32.933594 136.785156 34.074219 138.523438 35.941406 L 141.339844 32.964844 C 138.882812 30.363281 135.46875 28.746094 131.695312 28.746094 C 124.175781 28.746094 118.066406 35.214844 118.066406 43.167969 C 118.066406 51.125 124.175781 57.589844 131.695312 57.589844 C 135.527344 57.589844 138.972656 55.941406 141.429688 53.25 Z M 138.644531 50.300781 "/>
<path style=" stroke:none;fill-rule:nonzero;fill:rgb(100%,100%,100%);fill-opacity:1;" d="M 161.375 57.273438 L 165.421875 57.273438 L 151.460938 40.855469 L 162.785156 28.875 L 158.742188 28.875 L 147.449219 40.824219 L 147.449219 21.425781 L 143.496094 21.425781 L 143.496094 57.527344 L 147.449219 57.527344 L 147.449219 45.101562 L 149.425781 43.011719 Z M 161.375 57.273438 "/>
<path style=" stroke:none;fill-rule:nonzero;fill:rgb(100%,100%,100%);fill-opacity:1;" d="M 116.507812 43.074219 C 116.476562 35.152344 110.367188 28.78125 102.878906 28.78125 C 95.363281 28.78125 89.25 35.246094 89.25 43.203125 C 89.25 51.15625 95.363281 57.621094 102.878906 57.621094 C 105.246094 57.621094 107.460938 56.988281 109.410156 55.878906 L 106.445312 52.710938 C 105.335938 53.183594 104.136719 53.4375 102.878906 53.4375 C 97.546875 53.4375 93.203125 48.84375 93.203125 43.203125 C 93.203125 37.558594 97.546875 32.964844 102.878906 32.964844 C 108.210938 32.964844 112.554688 37.558594 112.554688 43.203125 C 112.554688 46.78125 112.554688 57.527344 112.554688 57.527344 L 116.507812 57.527344 C 116.507812 57.527344 116.539062 46.6875 116.507812 43.074219 Z M 116.507812 43.074219 "/>
<path style=" stroke:none;fill-rule:nonzero;fill:rgb(100%,100%,100%);fill-opacity:1;" d="M 44.980469 30.617188 C 51.542969 30.617188 56.84375 36.261719 56.84375 43.167969 C 56.84375 50.078125 51.511719 55.722656 44.980469 55.722656 C 38.453125 55.722656 33.121094 50.078125 33.121094 43.167969 C 33.121094 36.261719 38.453125 30.617188 44.980469 30.617188 M 44.980469 28.78125 C 37.464844 28.78125 31.351562 35.246094 31.351562 43.203125 C 31.351562 51.15625 37.464844 57.621094 44.980469 57.621094 C 52.5 57.621094 58.609375 51.15625 58.609375 43.203125 C 58.609375 35.246094 52.53125 28.78125 44.980469 28.78125 Z M 44.980469 28.78125 "/>
<path style=" stroke:none;fill-rule:nonzero;fill:rgb(100%,100%,100%);fill-opacity:1;" d="M 29.554688 43.074219 L 16.046875 43.074219 L 16.046875 44.945312 L 27.699219 44.945312 C 26.890625 51.0625 21.917969 55.753906 15.957031 55.753906 C 9.398438 55.753906 4.097656 50.109375 4.097656 43.203125 C 4.097656 36.292969 9.429688 30.648438 15.957031 30.648438 C 19.222656 30.648438 22.1875 32.042969 24.34375 34.328125 L 25.601562 32.996094 C 23.144531 30.394531 19.730469 28.78125 15.957031 28.78125 C 8.441406 28.78125 2.328125 35.246094 2.328125 43.203125 C 2.328125 51.15625 8.441406 57.621094 15.957031 57.621094 C 23.476562 57.621094 29.585938 51.15625 29.585938 43.203125 C 29.554688 43.167969 29.554688 43.105469 29.554688 43.074219 Z M 29.554688 43.074219 "/>
<path style=" stroke:none;fill-rule:nonzero;fill:rgb(100%,100%,100%);fill-opacity:1;" d="M 74.035156 28.78125 C 70.261719 28.78125 66.847656 30.394531 64.359375 33.027344 L 64.359375 21.425781 L 60.40625 21.425781 L 60.40625 43.074219 C 60.40625 43.105469 60.40625 43.136719 60.40625 43.203125 C 60.40625 51.15625 66.515625 57.621094 74.035156 57.621094 C 81.554688 57.621094 87.664062 51.15625 87.664062 43.203125 C 87.664062 35.246094 81.582031 28.78125 74.035156 28.78125 Z M 74.035156 53.4375 C 68.703125 53.4375 64.359375 48.84375 64.359375 43.203125 C 64.359375 37.558594 68.703125 32.964844 74.035156 32.964844 C 79.367188 32.964844 83.710938 37.558594 83.710938 43.203125 C 83.710938 48.84375 79.367188 53.4375 74.035156 53.4375 Z M 74.035156 53.4375 "/>
<use xlink:href="#surface5" mask="url(#mask0)"/>
<use xlink:href="#surface8" mask="url(#mask1)"/>
<path style=" stroke:none;fill-rule:nonzero;fill:rgb(100%,100%,100%);fill-opacity:1;" d="M 5.535156 15.339844 C 4.84375 14.898438 4.304688 14.328125 3.886719 13.566406 C 3.496094 12.804688 3.289062 11.980469 3.289062 11.03125 C 3.289062 10.109375 3.46875 9.253906 3.828125 8.496094 C 4.1875 7.734375 4.695312 7.164062 5.382812 6.71875 C 6.042969 6.277344 6.792969 6.085938 7.601562 6.085938 C 8.320312 6.085938 8.980469 6.242188 9.578125 6.53125 C 10.175781 6.816406 10.6875 7.257812 11.136719 7.828125 C 11.226562 7.957031 11.253906 8.050781 11.253906 8.144531 C 11.253906 8.304688 11.164062 8.429688 11.015625 8.527344 C 10.925781 8.589844 10.835938 8.621094 10.746094 8.621094 C 10.597656 8.621094 10.445312 8.558594 10.355469 8.398438 C 9.636719 7.511719 8.738281 7.035156 7.628906 7.035156 C 6.972656 7.035156 6.402344 7.195312 5.894531 7.542969 C 5.382812 7.890625 4.996094 8.335938 4.726562 8.96875 C 4.457031 9.570312 4.304688 10.269531 4.304688 11 C 4.304688 11.757812 4.457031 12.425781 4.753906 13.027344 C 5.054688 13.628906 5.472656 14.105469 6.011719 14.453125 C 6.550781 14.800781 7.152344 14.960938 7.871094 14.960938 C 8.859375 14.960938 9.636719 14.675781 10.238281 14.105469 C 10.328125 14.007812 10.445312 13.945312 10.597656 13.945312 C 10.714844 13.945312 10.804688 13.976562 10.894531 14.074219 C 11.015625 14.167969 11.074219 14.292969 11.074219 14.453125 C 11.074219 14.578125 11.046875 14.675781 10.957031 14.769531 C 10.566406 15.152344 10.117188 15.4375 9.578125 15.65625 C 9.039062 15.878906 8.5 15.976562 7.898438 15.976562 C 7 15.976562 6.253906 15.753906 5.535156 15.339844 Z M 5.535156 15.339844 "/>
<path style=" stroke:none;fill-rule:nonzero;fill:rgb(100%,100%,100%);fill-opacity:1;" d="M 20.332031 6.71875 C 21.050781 7.164062 21.617188 7.734375 22.007812 8.496094 C 22.425781 9.253906 22.605469 10.109375 22.605469 11.03125 L 22.605469 15.339844 C 22.605469 15.5 22.578125 15.625 22.488281 15.722656 C 22.398438 15.816406 22.277344 15.878906 22.128906 15.878906 C 21.976562 15.878906 21.859375 15.816406 21.769531 15.722656 C 21.679688 15.625 21.617188 15.5 21.617188 15.339844 L 21.617188 13.945312 C 21.257812 14.578125 20.75 15.054688 20.089844 15.4375 C 19.460938 15.785156 18.742188 15.976562 17.933594 15.976562 C 17.035156 15.976562 16.257812 15.753906 15.539062 15.339844 C 14.820312 14.898438 14.25 14.328125 13.859375 13.566406 C 13.441406 12.804688 13.261719 11.980469 13.261719 11.03125 C 13.261719 10.109375 13.472656 9.253906 13.859375 8.496094 C 14.28125 7.734375 14.820312 7.132812 15.539062 6.71875 C 16.257812 6.277344 17.066406 6.085938 17.933594 6.085938 C 18.832031 6.054688 19.640625 6.277344 20.332031 6.71875 Z M 19.851562 14.484375 C 20.421875 14.136719 20.839844 13.660156 21.167969 13.058594 C 21.5 12.457031 21.648438 11.789062 21.648438 11.03125 C 21.648438 10.269531 21.5 9.605469 21.167969 9 C 20.839844 8.398438 20.421875 7.925781 19.851562 7.574219 C 19.28125 7.226562 18.652344 7.035156 17.964844 7.035156 C 17.277344 7.035156 16.644531 7.226562 16.078125 7.574219 C 15.507812 7.925781 15.089844 8.398438 14.757812 9 C 14.429688 9.605469 14.28125 10.269531 14.28125 11.03125 C 14.28125 11.789062 14.429688 12.457031 14.757812 13.058594 C 15.089844 13.660156 15.539062 14.136719 16.078125 14.484375 C 16.644531 14.832031 17.277344 14.992188 17.964844 14.992188 C 18.652344 14.992188 19.28125 14.800781 19.851562 14.484375 Z M 19.851562 14.484375 "/>
<path style=" stroke:none;fill-rule:nonzero;fill:rgb(100%,100%,100%);fill-opacity:1;" d="M 30.335938 6.65625 C 30.335938 6.71875 30.335938 6.75 30.304688 6.78125 C 30.273438 6.910156 30.214844 7.003906 30.15625 7.066406 C 30.09375 7.132812 29.976562 7.164062 29.855469 7.164062 C 29.765625 7.164062 29.617188 7.164062 29.464844 7.132812 C 29.316406 7.101562 29.167969 7.101562 29.046875 7.101562 C 28.476562 7.101562 28 7.226562 27.550781 7.480469 C 27.101562 7.734375 26.769531 8.082031 26.53125 8.496094 C 26.292969 8.9375 26.171875 9.414062 26.171875 9.953125 L 26.171875 15.339844 C 26.171875 15.5 26.140625 15.625 26.050781 15.722656 C 25.960938 15.816406 25.84375 15.878906 25.691406 15.878906 C 25.542969 15.878906 25.421875 15.816406 25.332031 15.722656 C 25.242188 15.625 25.183594 15.5 25.183594 15.339844 L 25.183594 6.6875 C 25.183594 6.53125 25.242188 6.402344 25.332031 6.308594 C 25.421875 6.210938 25.542969 6.179688 25.691406 6.179688 C 25.84375 6.179688 25.960938 6.210938 26.050781 6.308594 C 26.140625 6.402344 26.171875 6.53125 26.171875 6.6875 L 26.171875 7.796875 C 26.5 7.257812 26.921875 6.816406 27.398438 6.53125 C 27.910156 6.210938 28.449219 6.054688 29.046875 6.054688 C 29.886719 6.054688 30.335938 6.242188 30.335938 6.65625 Z M 30.335938 6.65625 "/>
<path style=" stroke:none;fill-rule:nonzero;fill:rgb(100%,100%,100%);fill-opacity:1;" d="M 37.015625 14.929688 C 37.105469 15.023438 37.164062 15.152344 37.164062 15.339844 C 37.164062 15.5 37.105469 15.625 37.015625 15.722656 C 36.925781 15.816406 36.804688 15.878906 36.625 15.878906 L 36.234375 15.878906 C 35.605469 15.878906 35.066406 15.722656 34.589844 15.4375 C 34.109375 15.152344 33.71875 14.738281 33.449219 14.230469 C 33.179688 13.722656 33.058594 13.121094 33.058594 12.488281 L 33.058594 7.480469 L 31.742188 7.480469 C 31.621094 7.480469 31.503906 7.449219 31.414062 7.351562 C 31.324219 7.257812 31.292969 7.164062 31.292969 7.003906 C 31.292969 6.847656 31.324219 6.75 31.414062 6.65625 C 31.503906 6.5625 31.59375 6.53125 31.742188 6.53125 L 33.058594 6.53125 L 33.058594 3.644531 C 33.058594 3.488281 33.121094 3.359375 33.210938 3.234375 C 33.300781 3.136719 33.417969 3.074219 33.570312 3.074219 C 33.71875 3.074219 33.839844 3.136719 33.957031 3.234375 C 34.046875 3.328125 34.109375 3.453125 34.109375 3.644531 L 34.109375 6.53125 L 36.324219 6.53125 C 36.445312 6.53125 36.566406 6.5625 36.65625 6.65625 C 36.746094 6.75 36.773438 6.847656 36.773438 7.003906 C 36.773438 7.164062 36.746094 7.257812 36.65625 7.351562 C 36.566406 7.449219 36.476562 7.480469 36.324219 7.480469 L 34.109375 7.480469 L 34.109375 12.457031 C 34.109375 13.152344 34.320312 13.691406 34.707031 14.136719 C 35.097656 14.578125 35.636719 14.769531 36.265625 14.769531 L 36.625 14.769531 C 36.804688 14.800781 36.925781 14.832031 37.015625 14.929688 Z M 37.015625 14.929688 "/>
<path style=" stroke:none;fill-rule:nonzero;fill:rgb(100%,100%,100%);fill-opacity:1;" d="M 45.851562 6.71875 C 46.570312 7.164062 47.136719 7.734375 47.527344 8.496094 C 47.945312 9.253906 48.125 10.109375 48.125 11.03125 L 48.125 15.339844 C 48.125 15.5 48.097656 15.625 48.007812 15.722656 C 47.917969 15.816406 47.796875 15.878906 47.648438 15.878906 C 47.496094 15.878906 47.378906 15.816406 47.289062 15.722656 C 47.199219 15.625 47.136719 15.5 47.136719 15.339844 L 47.136719 13.945312 C 46.777344 14.578125 46.269531 15.054688 45.609375 15.4375 C 44.980469 15.785156 44.261719 15.976562 43.453125 15.976562 C 42.554688 15.976562 41.777344 15.753906 41.058594 15.339844 C 40.339844 14.898438 39.769531 14.328125 39.378906 13.566406 C 38.960938 12.804688 38.78125 11.980469 38.78125 11.03125 C 38.78125 10.109375 38.992188 9.253906 39.378906 8.496094 C 39.800781 7.734375 40.339844 7.132812 41.058594 6.71875 C 41.777344 6.277344 42.585938 6.085938 43.453125 6.085938 C 44.324219 6.054688 45.132812 6.277344 45.851562 6.71875 Z M 45.339844 14.484375 C 45.910156 14.136719 46.328125 13.660156 46.660156 13.058594 C 46.988281 12.457031 47.136719 11.789062 47.136719 11.03125 C 47.136719 10.269531 46.988281 9.605469 46.660156 9 C 46.328125 8.398438 45.910156 7.925781 45.339844 7.574219 C 44.773438 7.226562 44.144531 7.035156 43.453125 7.035156 C 42.765625 7.035156 42.136719 7.226562 41.566406 7.574219 C 40.996094 7.925781 40.578125 8.398438 40.25 9 C 39.917969 9.605469 39.769531 10.269531 39.769531 11.03125 C 39.769531 11.789062 39.917969 12.457031 40.25 13.058594 C 40.578125 13.660156 41.027344 14.136719 41.566406 14.484375 C 42.136719 14.832031 42.765625 14.992188 43.453125 14.992188 C 44.144531 14.992188 44.773438 14.800781 45.339844 14.484375 Z M 44.414062 4.53125 C 44.171875 4.40625 43.933594 4.277344 43.664062 4.089844 C 43.453125 3.929688 43.273438 3.804688 43.125 3.773438 C 42.976562 3.738281 42.855469 3.675781 42.703125 3.675781 C 42.253906 3.675781 41.804688 3.929688 41.417969 4.40625 C 41.328125 4.53125 41.175781 4.628906 40.996094 4.628906 C 40.878906 4.628906 40.789062 4.597656 40.757812 4.5625 C 40.578125 4.46875 40.519531 4.3125 40.519531 4.152344 C 40.519531 4.023438 40.546875 3.929688 40.609375 3.835938 C 40.90625 3.453125 41.238281 3.167969 41.597656 2.949219 C 41.957031 2.726562 42.34375 2.628906 42.703125 2.628906 C 43.003906 2.628906 43.246094 2.695312 43.453125 2.789062 C 43.664062 2.882812 43.933594 3.042969 44.203125 3.234375 C 44.441406 3.390625 44.621094 3.519531 44.742188 3.582031 C 44.863281 3.644531 45.042969 3.675781 45.222656 3.675781 C 45.609375 3.675781 45.910156 3.550781 46.148438 3.296875 C 46.269531 3.136719 46.449219 3.042969 46.628906 3.042969 C 46.71875 3.042969 46.777344 3.074219 46.808594 3.105469 C 47.019531 3.203125 47.109375 3.359375 47.109375 3.519531 C 47.109375 3.613281 47.078125 3.707031 47.019531 3.804688 C 46.570312 4.40625 46 4.722656 45.25 4.722656 C 44.921875 4.691406 44.621094 4.628906 44.414062 4.53125 Z M 44.414062 4.53125 "/>
<path style=" stroke:none;fill-rule:nonzero;fill:rgb(100%,100%,100%);fill-opacity:1;" d="M 52.441406 15.339844 C 51.722656 14.898438 51.152344 14.328125 50.761719 13.566406 C 50.34375 12.804688 50.164062 11.980469 50.164062 11.03125 C 50.164062 10.109375 50.371094 9.253906 50.761719 8.496094 C 51.179688 7.734375 51.722656 7.132812 52.441406 6.71875 C 53.160156 6.277344 53.96875 6.085938 54.835938 6.085938 C 55.703125 6.085938 56.511719 6.308594 57.230469 6.71875 C 57.949219 7.164062 58.519531 7.734375 58.910156 8.496094 C 59.328125 9.253906 59.507812 10.109375 59.507812 11.03125 C 59.507812 11.949219 59.296875 12.804688 58.910156 13.566406 C 58.488281 14.328125 57.949219 14.929688 57.230469 15.339844 C 56.511719 15.785156 55.734375 15.976562 54.835938 15.976562 C 53.96875 15.976562 53.160156 15.753906 52.441406 15.339844 Z M 56.722656 14.484375 C 57.292969 14.136719 57.710938 13.660156 58.039062 13.058594 C 58.371094 12.457031 58.519531 11.789062 58.519531 11.03125 C 58.519531 10.269531 58.371094 9.605469 58.039062 9 C 57.710938 8.398438 57.292969 7.925781 56.722656 7.574219 C 56.152344 7.226562 55.523438 7.035156 54.835938 7.035156 C 54.148438 7.035156 53.519531 7.226562 52.949219 7.574219 C 52.378906 7.925781 51.960938 8.398438 51.632812 9 C 51.300781 9.605469 51.152344 10.269531 51.152344 11.03125 C 51.152344 11.789062 51.300781 12.457031 51.632812 13.058594 C 51.960938 13.660156 52.410156 14.136719 52.949219 14.484375 C 53.519531 14.832031 54.148438 14.992188 54.835938 14.992188 C 55.554688 14.992188 56.183594 14.800781 56.722656 14.484375 Z M 56.722656 14.484375 "/>
</g>
</svg>
